Cherry Bomb 2011 DVDRiP AC3-5 1 XviD-AXED

IMDB: 
http://www.imdb.com/title/tt1606189/

PLOT INFO:
In homage to the action films of the early 1980s, the beautiful Cherry is an 
exotic dancer who is attacked by a group of sleazy men in the club where she 
works. The men escape justice and she vows revenge by killing them off one by one. Things start to spiral out of control when a mysterious hit man named Bull is 
hired to put an end to Cherry's bloody tirade. She soon realizes that there is 
more at stake than she everimagined

General
Complete name: Cherry.Bomb.2011.DVDRiP.AC3-5.1.XviD-AXED.avi
Format: AVI
Format/Info: Audio Video Interleave
File size: 1.37 GiB
Duration: 1h 22mn
Overall bit rate: 2 393 Kbps

Video
ID: 0
Format: MPEG-4 Visual
Format profile: Advanced Simple@L5
Format settings, BVOP: 1
Format settings, QPel: No
Format settings, GMC: No warppoints
Format settings, Matrix: Default (H.263)
Codec ID: XVID
Codec ID/Hint: XviD
Duration: 1h 22mn
Bit rate: 1 938 Kbps
Width: 720 pixels
Height: 304 pixels
Display aspect ratio: 2.35:1
Frame rate: 23.976 fps
Color space: YUV
Chroma subsampling: 4:2:0
Bit depth: 8 bits
Scan type: Progressive
Compression mode: Lossy
Bits/(Pixel*Frame): 0.369
Stream size: 1.11 GiB (81%)
Writing library: XviD 1.2.1 (UTC 2008-12-04)

Audio
ID: 1
Format: AC-3
Format/Info: Audio Coding 3
Mode extension: CM (complete main)
Codec ID: 2000
Duration: 1h 22mn
Bit rate mode: Constant
Bit rate: 448 Kbps
Channel(s): 6 channels
Channel positions: Front: L C R, Side: L R, LFE
Sampling rate: 48.0 KHz
Bit depth: 16 bits
Compression mode: Lossy
Stream size: 263 MiB (19%)
Alignment: Aligned on interleaves
Interleave, duration: 64 ms (1.53 video frames)
Interleave, preload duration: 192 ms
Title: VTS_01_1 T80 3_2ch 448Kbps DELAY 0ms

SOURCE:
Retail DVD

NOTES:
I feel sorry for people that need movies marketed to them by MTV. Think for yourselves for a change, and get some culture in you

AXED! We do this better


Poster:

 
http://www.postimg.com/74000/photo-73641.jpg


Screenshots:

 
http://www.postimg.com/74000/photo-73642.jpg

 
http://www.postimg.com/74000/photo-73643.jpg

 
http://www.postimg.com/74000/photo-73644.jpg


ENJOY!